# Blender v2.82 (sub 7) OBJ File: ''
# www.blender.org
mtllib cost_base.mtl
o Cube.001
v 0.750000 -1.000000 0.500000
v 0.750000 1.000000 0.500000
v -0.750000 1.000000 0.500000
v -0.750000 -1.000000 0.500000
v -0.750000 -1.000000 -0.000000
v -0.750000 1.000000 0.000000
v 0.750000 1.000000 0.000000
v 0.750000 -1.000000 -0.000000
vt 1.000000 0.000000
vt 0.000000 0.000000
vt 0.000000 1.000000
vt 1.000000 1.000000
vt 0.364248 -0.004036
vt 0.614248 -0.004036
vt 0.614248 0.159490
vt 0.364248 0.159490
vt 0.364248 0.019681
vt 0.614248 0.019681
vt 0.614248 0.137694
vt 0.364248 0.137694
vt 0.114248 0.032695
vt 0.364248 0.032695
vt 0.364248 0.141605
vt 0.114248 0.141605
vt 0.364248 0.019041
vt 0.614248 0.019041
vt 0.614248 0.137054
vt 0.364248 0.137054
vt 0.364248 0.023912
vt 0.614248 0.023912
vt 0.614248 0.128271
vt 0.364248 0.128271
vn 0.0000 -0.0000 1.0000
vn -1.0000 0.0000 0.0000
vn 0.0000 1.0000 0.0000
vn 0.0000 0.0000 -1.0000
vn 0.0000 -1.0000 0.0000
vn 1.0000 0.0000 0.0000
usemtl Material.001
s 1
f 1/1/1 2/2/1 3/3/1 4/4/1
f 5/5/2 4/6/2 3/7/2 6/8/2
f 6/9/3 3/10/3 2/11/3 7/12/3
f 7/13/4 8/14/4 5/15/4 6/16/4
f 8/17/5 1/18/5 4/19/5 5/20/5
f 7/21/6 2/22/6 1/23/6 8/24/6
